<svg xmlns="http://www.w3.org/2000/svg" viewBox="0 0 64 64">
  <!-- Toque de chef -->
  <path d="M18 28 C18 18 14 14 20 8 C24 4 30 2 32 2 C34 2 40 4 44 8 C50 14 46 18 46 28Z" fill="white" stroke="#E0D5C8" stroke-width="1.5"/>
  <rect x="18" y="26" width="28" height="6" rx="1" fill="white" stroke="#E0D5C8" stroke-width="1.5"/>
  <!-- Visage -->
  <circle cx="32" cy="40" r="12" fill="#F5D5A8"/>
  <!-- Yeux -->
  <circle cx="27" cy="38" r="1.8" fill="#333"/>
  <circle cx="37" cy="38" r="1.8" fill="#333"/>
  <!-- Sourire -->
  <path d="M28 44 Q32 48 36 44" stroke="#333" stroke-width="1.5" fill="none" stroke-linecap="round"/>
  <!-- Moustache -->
  <path d="M26 42 Q29 40 32 42 Q35 40 38 42" stroke="#6B4C2A" stroke-width="1.5" fill="none" stroke-linecap="round"/>
  <!-- Corps -->
  <path d="M22 52 C22 50 26 48 32 48 C38 48 42 50 42 52 L44 62 L20 62Z" fill="white" stroke="#E0D5C8" stroke-width="1"/>
  <!-- Boutons veste -->
  <circle cx="32" cy="54" r="1.2" fill="#333"/>
  <circle cx="32" cy="58" r="1.2" fill="#333"/>
</svg>
